<?xml version="1.0" encoding="UTF-8" standalone="no"?><svg xmlns="http://www.w3.org/2000/svg" xmlns:xlink="http://www.w3.org/1999/xlink" fill="#89a6b8" height="27" preserveAspectRatio="xMidYMid meet" version="1" viewBox="6.0 3.0 24.0 27.0" width="24" zoomAndPan="magnify"><g id="change1_1"><path d="M 8 3 C 6.895 3 6 3.895 6 5 L 6 25 C 6 26.105 6.895 27 8 27 L 14.947266 27 C 14.487266 26.078 14.176594 25.069 14.058594 24 L 10.5 24 C 9.672 24 9 23.328 9 22.5 C 9 21.672 9.672 21 10.5 21 L 14.230469 21 C 14.397469 20.263 14.656187 19.56225 14.992188 18.90625 C 14.415188 18.69725 14 18.149 14 17.5 C 14 16.672 14.672 16 15.5 16 C 15.985 16 16.410547 16.234797 16.685547 16.591797 C 18.309547 14.990797 20.539 14 23 14 C 23.688 14 24.356 14.083469 25 14.230469 L 25 5 C 25 3.895 24.105 3 23 3 L 8 3 z M 9 6 L 22 6 L 22 9 L 9 9 L 9 6 z M 10.5 11 C 11.328 11 12 11.672 12 12.5 C 12 13.328 11.328 14 10.5 14 C 9.672 14 9 13.328 9 12.5 C 9 11.672 9.672 11 10.5 11 z M 15.5 11 C 16.328 11 17 11.672 17 12.5 C 17 13.328 16.328 14 15.5 14 C 14.672 14 14 13.328 14 12.5 C 14 11.672 14.672 11 15.5 11 z M 20.5 11 C 21.328 11 22 11.672 22 12.5 C 22 13.328 21.328 14 20.5 14 C 19.672 14 19 13.328 19 12.5 C 19 11.672 19.672 11 20.5 11 z M 10.5 16 C 11.328 16 12 16.672 12 17.5 C 12 18.328 11.328 19 10.5 19 C 9.672 19 9 18.328 9 17.5 C 9 16.672 9.672 16 10.5 16 z M 23 16 C 19.134 16 16 19.134 16 23 C 16 26.866 19.134 30 23 30 C 26.866 30 30 26.866 30 23 C 30 19.134 26.866 16 23 16 z M 22 18 L 24 18 L 24 19.419922 C 25.088 19.708922 25.791453 20.468375 25.814453 21.484375 L 24.160156 21.484375 C 24.121156 20.986375 23.647578 20.638672 23.017578 20.638672 C 22.387578 20.638672 21.972656 20.93725 21.972656 21.40625 C 21.972656 21.79225 22.284344 22.015109 23.027344 22.162109 L 23.935547 22.339844 C 25.327547 22.608844 25.951172 23.236469 25.951172 24.355469 C 25.951172 25.527469 25.227 26.321656 24 26.597656 L 24 28 L 22 28 L 22 26.605469 C 20.802 26.346469 20.072828 25.601578 20.048828 24.517578 L 21.757812 24.517578 C 21.801813 25.030578 22.314641 25.357422 23.056641 25.357422 C 23.725641 25.357422 24.183594 25.034312 24.183594 24.570312 C 24.183594 24.179312 23.875312 23.969594 23.070312 23.808594 L 22.142578 23.623047 C 20.853578 23.379047 20.189453 22.675406 20.189453 21.566406 C 20.189453 20.482406 20.88 19.700109 22 19.412109 L 22 18 z" fill="inherit"/></g></svg>