<?xml version="1.0" encoding="UTF-8" standalone="no"?><svg xmlns="http://www.w3.org/2000/svg" xmlns:xlink="http://www.w3.org/1999/xlink" fill="#000000" height="154.4" preserveAspectRatio="xMidYMid meet" version="1" viewBox="-5.4 -5.4 154.4 154.4" width="154.4" zoomAndPan="magnify"><defs><linearGradient gradientUnits="userSpaceOnUse" id="a" x1="316.71" x2="475.64" xlink:actuate="onLoad" xlink:show="other" xlink:type="simple" y1="272.36" y2="280.99"><stop offset="0" stop-color="#ffffff" stop-opacity="0"/><stop offset="1" stop-color="#ffffff" stop-opacity="0.797"/></linearGradient><linearGradient gradientUnits="userSpaceOnUse" id="b" x1="468.2" x2="369.21" xlink:actuate="onLoad" xlink:show="other" xlink:type="simple" y1="232.09" y2="347.15"><stop offset="0" stop-color="#ffffff"/><stop offset="1" stop-color="#ffffff" stop-opacity="0"/></linearGradient><radialGradient cx="420.43" cy="621.61" gradientTransform="matrix(1.4475 -.78883 .56358 1.0342 -722.91 348.5)" gradientUnits="userSpaceOnUse" id="c" r="126.79" xlink:actuate="onLoad" xlink:show="other" xlink:type="simple"><stop offset="0" stop-color="#ffffff"/><stop offset="0.417" stop-color="#000000"/><stop offset="1" stop-color="#a6a6a6"/></radialGradient></defs><g><g id="change1_1"><path d="m487.14 272.36c0 48.917-39.655 88.571-88.571 88.571s-88.571-39.655-88.571-88.571 39.655-88.571 88.571-88.571 88.571 39.655 88.571 88.571z" fill="#67848f" fill-opacity="0.447" stroke="#a3b0b5" stroke-linejoin="round" stroke-width="5.076" transform="rotate(4.483 2017.382 -2951.812) scale(.78809)"/></g><path d="m488.1 272.36c0 48.917-40.084 88.571-89.53 88.571s-89.53-39.655-89.53-88.571 40.084-88.571 89.53-88.571 89.53 39.655 89.53 88.571z" fill="url(#a)" opacity="0.61" transform="rotate(4.483 1858.832 -2738.113) scale(.74497)"/><path d="m487.14 272.36c0 48.917-39.655 88.571-88.571 88.571s-88.571-39.655-88.571-88.571 39.655-88.571 88.571-88.571 88.571 39.655 88.571 88.571z" fill="none" stroke="#edf3f3" stroke-linejoin="round" stroke-width="5.076" transform="rotate(4.483 1858.832 -2738.113) scale(.74497)"/><path d="m488.1 272.36c0 48.917-40.084 88.571-89.53 88.571s-89.53-39.655-89.53-88.571 40.084-88.571 89.53-88.571 89.53 39.655 89.53 88.571z" fill="url(#b)" opacity="0.61" transform="rotate(4.483 1858.832 -2738.113) scale(.74497)"/><path d="m243.08 573.65c-57.796 4.5813-104.19 29.712-110.37 65.257 11.34 18.123 31.472 30.198 54.411 30.198 35.409 0 64.133-28.754 64.133-64.164 0-11.368-2.9788-22.03-8.1724-31.292z" fill="url(#c)" fill-rule="evenodd" transform="rotate(4.483 6940.81 -1136.214)"/></g></svg>