<?xml version="1.0" encoding="UTF-8" standalone="no"?><svg xmlns="http://www.w3.org/2000/svg" xmlns:xlink="http://www.w3.org/1999/xlink" fill="#ffffff" height="496.6" preserveAspectRatio="xMidYMid meet" version="1" viewBox="0.0 -0.6 496.3 496.6" width="496.3" zoomAndPan="magnify"><g id="change1_1"><path d="M351.125,315.904v3.714c-18.043,3.118-31.652,16.568-31.652,32.637c0,19.65,16.336,26.566,31.652,31.235v35.908 c-12.611-2.556-20.827-10.283-21.043-10.49c-3.146-3.077-8.192-3.034-11.287,0.1c-3.104,3.145-3.071,8.21,0.073,11.313 c0.581,0.574,12.922,12.531,32.257,15.312v3.613c0,4.418,3.582,8,8,8s8-3.582,8-8v-3.714c18.043-3.118,31.652-16.568,31.652-32.637 c0-19.723-16.314-26.684-31.652-31.37v-35.774c12.704,2.574,20.944,10.394,21.018,10.465c3.144,3.103,8.209,3.071,11.313-0.075 c3.104-3.145,3.07-8.209-0.075-11.313c-0.581-0.573-12.922-12.53-32.256-15.311v-3.613c0-4.418-3.582-8-8-8 S351.125,311.486,351.125,315.904z M335.473,352.256c0-7.344,6.628-13.796,15.652-16.258v30.648 C340.547,362.986,335.473,359.367,335.473,352.256z M382.777,402.896c0,7.344-6.628,13.796-15.652,16.258v-30.777 C377.703,392.05,382.777,395.706,382.777,402.896z"/><path d="M338.72,156.414H189.559c-4.418,0-8,3.582-8,8v41.461c0,4.418,3.582,8,8,8H338.72c4.418,0,8-3.582,8-8v-41.461 C346.72,159.996,343.138,156.414,338.72,156.414z M330.72,197.875H197.559v-25.461H330.72V197.875z"/><path d="M57.322,102.679h182.355c4.418,0,8-3.582,8-8s-3.582-8-8-8H57.322c-4.418,0-8,3.582-8,8S52.904,102.679,57.322,102.679z"/><path d="M495.978,182.698c-0.326-9.03-4.15-17.393-10.767-23.547L473.8,148.537l4.877-5.242c3.806-4.091,5.79-9.418,5.588-15.002 c-0.202-5.582-2.566-10.753-6.657-14.558l-45.637-42.45c-3.233-3.01-8.298-2.826-11.306,0.409 c-3.01,3.234-2.826,8.297,0.409,11.306l45.636,42.45c0.962,0.895,1.518,2.109,1.564,3.422c0.048,1.312-0.418,2.563-1.313,3.525 l-4.877,5.243L340.386,24.438c-0.79-0.735-1.722-1.304-2.737-1.669L275.756,0.475c-3.016-1.088-6.386-0.269-8.568,2.078 c-2.183,2.346-2.755,5.768-1.454,8.696l8.23,18.526H8c-4.418,0-8,3.582-8,8v450.226c0,4.418,3.582,8,8,8h281c4.418,0,8-3.582,8-8 V452.98c16.9,13.949,38.551,22.337,62.125,22.337c53.895,0,97.741-43.847,97.741-97.741c0-46.79-33.051-86-77.03-95.526V153.538 l59.294,55.154c7.682,5.604,15.657,9.342,24.264,9.037c9.03-0.327,17.393-4.15,23.547-10.767S496.305,191.729,495.978,182.698z M320.83,33.717l-18.684,20.086l-14.182-31.925L320.83,33.717z M338.72,229.13H189.559c-4.418,0-8,3.582-8,8v145.431 c0,4.418,3.582,8,8,8h72.689c0.686,5.145,1.776,10.164,3.233,15.026h-90.715c-5.691,0-10.321-4.63-10.321-10.32V151.709 c0-5.691,4.63-10.321,10.321-10.321h178.75c5.691,0,10.321,4.63,10.321,10.321V279.95c-1.561-0.074-3.131-0.116-4.711-0.116 c-4.202,0-8.342,0.267-12.405,0.784V237.13C346.72,232.712,343.138,229.13,338.72,229.13z M297,265.487V245.13h33.72v20.357H297z M330.72,281.487c-13.484,5.583-25.108,12.108-33.316,20.358H297v-20.358H330.72z M247.279,338.203v-20.357H281 c-4.395,5.818-8.17,12.604-11.326,20.357H247.279z M264.214,354.203c-1.614,6.553-2.568,13.364-2.781,20.357h-14.154v-20.357 H264.214z M247.279,301.846v-20.358H281v20.358H247.279z M247.279,265.487V245.13H281v20.357H247.279z M197.559,338.203v-20.357 h33.721v20.357H197.559z M231.279,354.203v20.357h-33.721v-20.357H231.279z M197.559,301.846v-20.358h33.721v20.358H197.559z M197.559,265.487V245.13h33.721v20.357H197.559z M297,125.388V76.486l52.573,48.902H297z M281,480.001H16V45.775h265v79.612 H174.765c-14.514,0-26.321,11.808-26.321,26.321v8.775H57.322c-4.418,0-8,3.582-8,8s3.582,8,8,8h91.121v57.807H57.322 c-4.418,0-8,3.582-8,8s3.582,8,8,8h91.121v57.807H57.322c-4.418,0-8,3.582-8,8s3.582,8,8,8h91.121v57.807H57.322 c-4.418,0-8,3.582-8,8s3.582,8,8,8h91.253c1.328,13.279,12.565,23.683,26.189,23.683h97.104c2.616,5.165,5.675,10.069,9.131,14.659 V480.001z M440.866,377.576c0,45.072-36.669,81.741-81.741,81.741c-45.073,0-81.742-36.669-81.742-81.741 c0-45.073,36.669-81.742,81.742-81.742C404.197,295.834,440.866,332.503,440.866,377.576z M311.059,67.712l24.287-26.11 l97.957,91.118l-24.287,26.11L311.059,67.712z M475.226,196.063L475.226,196.063c-3.244,3.488-7.651,5.503-12.411,5.676 c-4.737,0.172-9.301-1.52-12.788-4.763l-29.295-27.25l24.287-26.11l29.295,27.25c3.487,3.244,5.503,7.651,5.675,12.41 C480.16,188.036,478.469,192.577,475.226,196.063z"/></g></svg>