<?xml version="1.0" encoding="UTF-8" standalone="no"?><svg xmlns="http://www.w3.org/2000/svg" xmlns:xlink="http://www.w3.org/1999/xlink" fill="#000000" height="235.5" preserveAspectRatio="xMidYMid meet" version="1" viewBox="113.4 179.9 368.4 235.5" width="368.4" zoomAndPan="magnify"><g id="change1_1"><path d="M 461.46875 411.476562 L 345.851562 315.476562 C 342.472656 312.671875 337.574219 312.671875 334.195312 315.476562 L 303.046875 341.339844 C 299.910156 343.941406 295.367188 343.941406 292.234375 341.339844 L 261.085938 315.476562 C 257.707031 312.671875 252.808594 312.671875 249.425781 315.476562 L 133.808594 411.476562 C 132.21875 412.796875 133.152344 415.382812 135.222656 415.382812 L 460.058594 415.382812 C 462.125 415.382812 463.058594 412.796875 461.46875 411.476562" fill="#fffef4"/><path d="M 234.984375 293.804688 L 117.070312 195.898438 C 115.632812 194.703125 113.449219 195.726562 113.449219 197.597656 L 113.449219 397.679688 C 113.449219 399.550781 115.632812 400.574219 117.070312 399.382812 L 234.984375 301.476562 C 237.386719 299.480469 237.386719 295.796875 234.984375 293.804688" fill="#fffef4"/><path d="M 133.8125 183.804688 L 293.214844 316.160156 C 295.78125 318.289062 299.5 318.289062 302.0625 316.160156 L 461.46875 183.804688 C 463.058594 182.484375 462.125 179.894531 460.058594 179.894531 L 135.222656 179.894531 C 133.152344 179.894531 132.21875 182.484375 133.8125 183.804688" fill="#fffef4"/><path d="M 478.210938 195.898438 L 360.296875 293.804688 C 357.894531 295.796875 357.894531 299.480469 360.296875 301.476562 L 478.210938 399.382812 C 479.648438 400.574219 481.828125 399.554688 481.828125 397.683594 L 481.828125 197.597656 C 481.828125 195.726562 479.648438 194.703125 478.210938 195.898438" fill="#fffef4"/></g></svg>