<?xml version="1.0" encoding="UTF-8"?><svg xmlns="http://www.w3.org/2000/svg" xmlns:xlink="http://www.w3.org/1999/xlink" height="601.0" preserveAspectRatio="xMidYMid meet" version="1.0" viewBox="0.0 -0.5 600.0 601.0" width="600.0" zoomAndPan="magnify"><g id="change1_1"><path d="M415.6,423.2c8.9,11.2-1.8,23.6-6.9,28.3c-6.6,6.3-15.1,11.4-25.5,15.3c-5.3,2-9.5,3.2-13.5,3.7l-2.4,0.3 c-10.2,1.1-21.7,0.1-35.2-2.9c-26.7-5.7-51.5-21.9-75.9-49.4c-3.7-3.6-31.5-31.5-49.3-70.8c-17.9-39.9-20.1-78.9-20.3-83.2 c-4.4-37.5,0.1-66.8,13.3-90.5c7.3-13,14.9-22.9,23.1-29.9c2.9-2.6,6.7-5,11.8-7.7c9.5-4.8,18.8-7.8,27.5-8.7 c5.5-0.5,24-1,26.4,13.5l2.4,25c1.1,11.1,3.5,39.2,3.5,39.2c1.8,17.8-0.3,27.2-17.6,29.6c-1.3,0.1-2.6-0.1-4.2-0.1 c-3.9-0.4-7.4-0.6-10.5-0.6l-12.6,0.1l0.3,12.6c0.3,14.1,5.3,50.4,16,74.3c9.9,22,32.8,50.1,44.9,61.2l9.3,8.5l8.4-9.5 c1.9-2.2,4-4.9,5.2-6.5c2.1-2.8,3.1-4.2,4-4.9c4.4-3.8,8.5-5.9,12.6-6.3c8-0.8,14,5,21,12.7L415.6,423.2z M600,300 c0,165.9-134.3,300.5-300,300.5C134.3,600.5,0,465.9,0,300S134.3-0.5,300-0.5C465.7-0.5,600,134.1,600,300z M554.4,300 c0-140.7-113.9-254.8-254.4-254.8S45.6,159.3,45.6,300S159.5,554.8,300,554.8S554.4,440.7,554.4,300z" fill="inherit"/></g></svg>