<?xml version="1.0" encoding="UTF-8" standalone="no"?><svg xmlns="http://www.w3.org/2000/svg" xmlns:xlink="http://www.w3.org/1999/xlink" data-name="Layer 1" fill="#c1ff72" height="61.3" preserveAspectRatio="xMidYMid meet" version="1" viewBox="0.9 1.4 62.1 61.3" width="62.1" zoomAndPan="magnify"><g id="change1_1"><path d="M32.91,11.79a.94.94,0,0,1,.94-.94A19.69,19.69,0,0,1,53.52,30.52a.94.94,0,0,1-1.88,0A17.81,17.81,0,0,0,33.85,12.73.94.94,0,0,1,32.91,11.79Z" fill="inherit"/></g><g id="change1_2"><path d="M63,30.52a.94.94,0,1,1-1.88,0A27.3,27.3,0,0,0,33.85,3.24a.94.94,0,1,1,0-1.88A29.19,29.19,0,0,1,63,30.52Z" fill="inherit"/></g><g id="change1_3"><path d="M32.91,21.27a.94.94,0,0,1,.94-.94A10.19,10.19,0,0,1,44,30.52a.93.93,0,0,1-.94.94,1,1,0,0,1-.94-.94,8.31,8.31,0,0,0-8.3-8.31A.94.94,0,0,1,32.91,21.27Z" fill="inherit"/></g><g id="change1_4"><path d="M59.78,50.6v1.82a5.39,5.39,0,0,1-1.58,3.79l-4.92,4.88a5.33,5.33,0,0,1-3.73,1.55h-.22A50.55,50.55,0,0,1,1,14.3a5.26,5.26,0,0,1,1.54-4L7.42,5.43a5.4,5.4,0,0,1,3.79-1.58H13A5.36,5.36,0,0,1,18,7.3l4.32,11.48a5.37,5.37,0,0,1-1.12,5.54l-1.79,1.89a3.44,3.44,0,0,0-.33,4.33,55.49,55.49,0,0,0,14,14.08,3.45,3.45,0,0,0,4.26-.39l1.92-1.82a5.37,5.37,0,0,1,5.54-1.12l11.48,4.32A5.36,5.36,0,0,1,59.78,50.6Z" fill="inherit"/></g></svg>